<?xml version="1.0" encoding="utf-8"?>
<!-- Generator: Adobe Illustrator 16.0.0, SVG Export Plug-In . SVG Version: 6.00 Build 0)  -->
<!DOCTYPE svg PUBLIC "-//W3C//DTD SVG 1.1//EN" "http://www.w3.org/Graphics/SVG/1.1/DTD/svg11.dtd">
<svg version="1.1" id="Layer_1" xmlns="http://www.w3.org/2000/svg" xmlns:xlink="http://www.w3.org/1999/xlink" x="0px" y="0px"
	 width="22px" height="22px" viewBox="0 0 22 22" enable-background="new 0 0 22 22" xml:space="preserve">
<g>
	<path fill-rule="evenodd" clip-rule="evenodd" fill="#11436E" d="M11.024,2.655c2.829,0,5.655-0.001,8.481,0.001
		c1.573,0,2.458,1.191,2.003,2.712c-0.302,1.008-0.962,1.769-1.798,2.361c-2.271,1.607-4.579,3.165-6.838,4.79
		c-1.249,0.898-2.405,0.978-3.686,0.051c-2.334-1.688-4.742-3.274-7.064-4.979C1.13,6.861,0.294,5.931,0.379,4.534
		c0.074-1.211,0.768-1.876,1.986-1.879c2.887-0.006,5.773-0.002,8.658-0.002C11.024,2.654,11.024,2.655,11.024,2.655z"/>
	<path fill-rule="evenodd" clip-rule="evenodd" fill="#11436E" d="M0.933,19c2.114-2.119,4.106-4.116,6.187-6.201
		c2.531,2.533,5.158,2.602,7.694,0.023c2.069,2.094,4.062,4.11,6.128,6.2c-0.407,0.106-0.831,0.311-1.257,0.313
		c-5.809,0.02-11.62,0.017-17.43-0.006C1.846,19.327,1.438,19.131,0.933,19z"/>
	<path fill-rule="evenodd" clip-rule="evenodd" fill="#11436E" d="M16.392,11.814c1.684-1.178,3.438-2.406,5.192-3.634
		c0,2.925,0,5.907,0,8.863C19.86,15.309,18.132,13.567,16.392,11.814z"/>
	<path fill-rule="evenodd" clip-rule="evenodd" fill="#11436E" d="M0.392,17.096c0-2.978,0-5.937,0-8.908
		c1.768,1.231,3.518,2.45,5.251,3.658C3.892,13.597,2.164,15.324,0.392,17.096z"/>
</g>
</svg>
