<?xml version="1.0" encoding="utf-8"?>
<!-- Generator: Adobe Illustrator 16.0.0, SVG Export Plug-In . SVG Version: 6.00 Build 0)  -->
<!DOCTYPE svg PUBLIC "-//W3C//DTD SVG 1.1//EN" "http://www.w3.org/Graphics/SVG/1.1/DTD/svg11.dtd">
<svg version="1.1" id="Layer_1" xmlns="http://www.w3.org/2000/svg" xmlns:xlink="http://www.w3.org/1999/xlink" x="0px" y="0px"
	 width="16px" height="22px" viewBox="0 0 16 22" enable-background="new 0 0 16 22" xml:space="preserve">
<path fill-rule="evenodd" clip-rule="evenodd" fill="#11436E" d="M7.981,3.363c-4.169,0.02-7.633,3.478-7.608,7.598
	c0.024,4.257,3.448,7.688,7.66,7.677c4.154-0.012,7.634-3.482,7.618-7.599C15.637,6.801,12.181,3.343,7.981,3.363z M11.438,15.657
	c-0.133-0.11-0.262-0.199-0.372-0.31c-1.336-1.341-2.674-2.681-3.998-4.037c-0.153-0.158-0.313-0.407-0.306-0.608
	c0.061-1.832,0.157-3.642,0.247-5.473C7.013,5.152,7.05,6,7.076,5c0.333,0,0.653,0,1.042,0C8.14,6,8.17,5.414,8.18,5.629
	c0.056,1.363,0.123,2.717,0.155,4.081c0.012,0.516,0.172,0.921,0.511,1.314c1.126,1.31,2.222,2.642,3.352,3.991
	C11.93,15.243,11.698,15.436,11.438,15.657z"/>
</svg>
