<?xml version="1.0" encoding="utf-8"?>
<!-- Generator: Adobe Illustrator 16.0.0, SVG Export Plug-In . SVG Version: 6.00 Build 0)  -->
<!DOCTYPE svg PUBLIC "-//W3C//DTD SVG 1.1//EN" "http://www.w3.org/Graphics/SVG/1.1/DTD/svg11.dtd">
<svg version="1.1" id="Layer_1" xmlns="http://www.w3.org/2000/svg" xmlns:xlink="http://www.w3.org/1999/xlink" x="0px" y="0px"
	 width="14px" height="22px" viewBox="0 0 14 22" enable-background="new 0 0 14 22" xml:space="preserve">
<g>
	<path fill-rule="evenodd" clip-rule="evenodd" fill="#11436E" d="M12.748,20.416c-1.006,0.745-2.147,1.009-3.267,1.375
		c-1.319,0.434-2.163-0.133-3.061-0.969c-3.36-3.125-5.108-7.066-5.963-11.481c-0.448-2.318-0.477-4.65-0.251-6.99
		C0.23,2.122,0.35,1.854,0.514,1.695c0.868-0.84,1.93-1.271,3.129-1.329c0.173-0.008,0.485,0.204,0.52,0.361
		c0.434,1.97,0.824,3.948,1.242,6.002C4.974,6.67,4.624,6.619,4.274,6.577C3.752,6.515,3.518,6.741,3.678,7.224
		c0.979,2.942,1.973,5.877,2.979,8.811c0.078,0.229,0.262,0.422,0.44,0.703c0.449-0.393,0.852-0.746,1.325-1.161
		C9.865,17.191,11.291,18.786,12.748,20.416z"/>
	<path fill-rule="evenodd" clip-rule="evenodd" fill="#11436E" d="M8.626,15.263c0.404-0.241,0.71-0.498,1.062-0.606
		c0.191-0.059,0.537,0.068,0.683,0.229c1.129,1.252,2.229,2.53,3.332,3.806c0.443,0.512,0.217,1.234-0.453,1.396
		c-0.137,0.032-0.366-0.079-0.473-0.196C11.431,18.409,10.102,16.914,8.626,15.263z"/>
	<path fill-rule="evenodd" clip-rule="evenodd" fill="#11436E" d="M4.411,0.288c0.975-0.439,1.395-0.263,1.618,0.69
		c0.35,1.494,0.692,2.991,1.022,4.49c0.124,0.561-0.117,0.896-0.644,0.996c-0.521,0.099-0.76-0.111-0.86-0.629
		C5.185,3.981,4.791,2.133,4.411,0.288z"/>
</g>
</svg>
